HIERARCHY
ROOT Hips
{
	OFFSET -3.958830 18.904000 13.208200
	CHANNELS 6 Xposition Yposition Zposition Zrotation Yrotation Xrotation 
	JOINT LHipJoint
	{
		OFFSET 0.000000 0.000000 0.000000
		CHANNELS 3 Zrotation Yrotation Xrotation
		JOINT LeftUpLeg
		{
			OFFSET 1.800000 -1.400000 0.085000
			CHANNELS 3 Zrotation Yrotation Xrotation
			JOINT LeftLeg
			{
				OFFSET 2.215000 -6.000000 0.000000
				CHANNELS 3 Zrotation Yrotation Xrotation
				JOINT LeftFoot
				{
					OFFSET 2.500000 -6.900000 0.000000
					CHANNELS 3 Zrotation Yrotation Xrotation
					JOINT LeftToeBase
					{
						OFFSET 0.200000 -0.500000 1.950000
						CHANNELS 3 Zrotation Yrotation Xrotation
						End Site
						{
							OFFSET 0.000000 0.000000 0.000000
						}
					}
				}
			}
		}
	}
	JOINT RHipJoint
	{
		OFFSET 0.000000 0.000000 0.000000
		CHANNELS 3 Zrotation Yrotation Xrotation
		JOINT RightUpLeg
		{
			OFFSET -1.800000 -1.400000 0.085000
			CHANNELS 3 Zrotation Yrotation Xrotation
			JOINT RightLeg
			{
				OFFSET -2.215000 -6.000000 0.000000
				CHANNELS 3 Zrotation Yrotation Xrotation
				JOINT RightFoot
				{
					OFFSET -2.500000 -6.900000 0.000000
					CHANNELS 3 Zrotation Yrotation Xrotation
					JOINT RightToeBase
					{
						OFFSET -0.200000 -0.500000 1.950000
						CHANNELS 3 Zrotation Yrotation Xrotation
						End Site
						{
							OFFSET 0.000000 0.000000 0.000000
						}
					}
				}
			}
		}
	}
	JOINT LowerBack
	{
		OFFSET 0.000000 0.000000 0.000000
		CHANNELS 3 Zrotation Yrotation Xrotation
		JOINT Spine
		{
			OFFSET -0.087000 1.940000 -0.288900
			CHANNELS 3 Zrotation Yrotation Xrotation
			JOINT Spine1
			{
				OFFSET 0.000000 1.950000 0.060000
				CHANNELS 3 Zrotation Yrotation Xrotation
				JOINT Neck
				{
					OFFSET 0.000000 0.000000 0.000000
					CHANNELS 3 Zrotation Yrotation Xrotation
					JOINT Neck1
					{
						OFFSET 0.000000 1.600000 0.340000
						CHANNELS 3 Zrotation Yrotation Xrotation
						JOINT Head
						{
							OFFSET 0.000000 1.667000 -0.240000
							CHANNELS 3 Zrotation Yrotation Xrotation
							End Site
							{
								OFFSET 0.000000 0.000000 0.000000
							}
						}
					}
				}
				JOINT LeftShoulder
				{
					OFFSET 0.000000 0.000000 0.000000
					CHANNELS 3 Zrotation Yrotation Xrotation
					JOINT LeftArm
					{
						OFFSET 2.700000 1.550000 -0.730000
						CHANNELS 3 Zrotation Yrotation Xrotation
						JOINT LeftForeArm
						{
							OFFSET 5.450000 0.000000 0.000000
							CHANNELS 3 Zrotation Yrotation Xrotation
							JOINT LeftHand
							{
								OFFSET 3.450000 0.000000 0.000000
								CHANNELS 3 Zrotation Yrotation Xrotation
								JOINT LeftHandIndex1
								{
									OFFSET 0.750000 0.000000 0.000000
									CHANNELS 3 Zrotation Yrotation Xrotation
									End Site
									{
										OFFSET 0.000000 0.000000 0.000000
									}
								}
							}
						}
					}
				}
				JOINT RightShoulder
				{
					OFFSET 0.000000 0.000000 0.000000
					CHANNELS 3 Zrotation Yrotation Xrotation
					JOINT RightArm
					{
						OFFSET -2.700000 1.550000 -0.730000
						CHANNELS 3 Zrotation Yrotation Xrotation
						JOINT RightForeArm
						{
							OFFSET -5.450000 0.000000 0.000000
							CHANNELS 3 Zrotation Yrotation Xrotation
							JOINT RightHand
							{
								OFFSET -3.450000 0.000000 0.000000
								CHANNELS 3 Zrotation Yrotation Xrotation
								JOINT RightHandIndex1
								{
									OFFSET -0.750000 0.000000 0.000000
									CHANNELS 3 Zrotation Yrotation Xrotation
									End Site
									{
										OFFSET 0.000000 0.000000 0.000000
									}
								}
							}
						}
					}
				}
			}
		}
	}
}
MOTION
Frames: 11
Frame Time: 0.016667
-1.351480 16.135740 -2.458130 -1.653188 -2.414139 -13.514782 -15.246887 11.898918 4.264908 30.691828 -0.219321 -29.862538 -2.901207 17.283409 58.323966 0.260911 11.399766 -0.086859 0.806790 0.760920 0.695400 18.542670 -9.292483 3.138325 -30.591971 6.821846 -28.557931 11.192919 -20.849542 60.468674 -2.057036 -10.376862 0.437023 0.329460 -0.553680 0.175160 -3.950110 -1.780929 -8.862980 26.571696 -11.023439 38.365826 -12.460337 -1.393054 11.244334 10.002792 -5.711586 -17.631717 -21.711558 17.526245 86.383118 -6.850240 -2.312480 -30.241400 -25.169208 -20.739867 8.097762 -53.001270 0.691848 -19.795607 -12.466443 -52.811835 -2.257987 -2.820446 2.744754 1.212180 -0.625510 0.803710 -0.091880 6.217649 28.141421 10.416045 59.351895 15.342258 -23.698290 -37.104183 48.209975 -21.639171 1.758343 -0.606782 0.019390 0.418170 0.034860 -0.262840 
-1.332500 16.123040 -2.459900 -1.138313 -2.393634 -13.696147 -15.243119 11.880253 4.265417 30.411518 -0.566274 -29.612974 -3.678342 17.692049 58.414855 0.376129 11.481943 -0.046561 0.806230 0.783110 0.652020 18.558291 -9.278115 3.107500 -31.323561 6.340600 -28.719072 10.588516 -20.782786 60.822698 -2.055989 -10.403497 0.464544 0.327440 -0.492690 0.157440 -3.975551 -1.877509 -8.836683 27.596138 -11.104520 37.774388 -11.260218 -1.703236 11.008599 8.956122 -6.069746 -17.422760 -23.802069 18.180403 83.837947 -4.997520 -2.386190 -28.790360 -23.128813 -20.524562 8.004038 -53.457209 -0.594972 -18.304705 -12.666971 -49.493233 -1.901639 -2.860930 2.734496 1.156810 -0.604620 0.780970 -0.028630 6.268793 27.536569 10.292214 58.575511 14.383969 -22.833122 -32.703756 47.359834 -18.835231 1.801551 -0.680002 0.030270 0.439960 -0.002790 -0.212440 
-1.288810 16.124190 -2.451670 -0.813174 -2.611751 -13.527673 -15.240008 11.804302 4.325493 30.726211 -0.967653 -28.995801 -5.713251 18.658906 57.749390 0.470980 11.661832 -0.041050 0.723300 0.701680 0.570510 18.590033 -9.218960 3.040845 -31.913030 5.645044 -29.017106 9.937517 -20.710690 60.821044 -1.999489 -10.375540 0.502109 0.279540 -0.411390 0.128730 -4.029816 -2.017324 -8.796714 30.094045 -12.141213 36.809033 -10.677757 -2.653980 10.205566 7.947357 -6.619065 -17.140308 -27.057507 19.146178 79.478723 -4.681760 -2.812570 -27.257590 -20.577471 -19.806383 7.883321 -52.750051 -0.989272 -15.948973 -12.795872 -43.025786 -1.413363 -2.939472 2.664370 1.108650 -0.569020 0.721990 -0.012130 5.695610 26.080922 10.171808 60.895026 13.265593 -23.448025 -26.242424 51.213133 -17.107397 1.832076 -0.678343 0.002700 0.473040 0.023330 -0.176810 
-1.224210 16.140200 -2.443340 0.136616 -3.022112 -12.771239 -15.226347 11.652628 4.399361 30.645056 -1.398642 -28.303306 -8.926729 20.078841 56.083468 0.595476 11.855364 -0.021828 0.619250 0.581950 0.475640 18.642389 -9.147887 3.015585 -32.990372 4.725202 -30.284384 8.679408 -20.214631 60.616920 -1.877552 -10.277217 0.562727 0.218510 -0.316290 0.100390 -4.125948 -2.050025 -8.779574 32.032188 -12.788960 34.776854 -10.502236 -3.607796 9.622676 7.064831 -6.871840 -16.949965 -29.085040 19.252785 75.240446 -5.029000 -3.091580 -22.935790 -18.193561 -19.213504 7.817852 -51.578446 -1.837811 -12.165941 -10.258315 -32.930669 -1.538201 -3.046507 2.603112 1.020770 -0.500550 0.624200 0.008430 5.006984 24.548502 10.248229 63.932649 12.055936 -24.333159 -17.809639 56.322305 -15.062777 1.889402 -0.778227 -0.029020 0.470960 0.045410 -0.145280 
-1.151820 16.187570 -2.438220 0.454233 -3.581449 -12.260995 -15.206078 11.526835 4.486804 31.153968 -1.466402 -27.269189 -12.100587 21.195631 53.764474 0.699413 11.934785 0.009772 0.573670 0.533150 0.417840 18.688521 -9.179478 2.884224 -32.721051 4.185614 -30.853562 7.041995 -19.045739 59.811518 -1.746078 -10.010595 0.666952 0.185290 -0.249010 0.111160 -4.229736 -1.952721 -8.700168 34.246860 -13.730886 32.591896 -10.302129 -5.009450 10.242727 6.354485 -7.394374 -16.758658 -30.324890 19.094241 70.731772 -6.199290 -2.706040 -19.455360 -14.491927 -18.908671 8.303315 -52.814364 -2.990401 -8.686893 -4.735231 -23.372952 -1.977234 -3.148161 2.599285 0.927470 -0.429950 0.557890 0.040540 2.755253 23.713284 9.953891 66.954876 13.761504 -23.147389 -10.924224 56.742903 -12.373722 1.972253 -0.945594 -0.018390 0.437480 0.040190 -0.110450 
-1.097320 16.249500 -2.404680 1.183873 -3.889141 -11.966079 -15.186797 11.526163 4.512936 31.363220 -1.360566 -25.432367 -15.260924 21.992806 50.662998 0.795108 11.883120 0.073918 0.523660 0.484780 0.384920 18.702976 -9.280557 2.727831 -32.752149 3.638967 -30.563597 5.534403 -17.810102 58.633707 -1.622527 -9.687195 0.773959 0.137920 -0.189340 0.144300 -4.279884 -1.921632 -8.613249 34.975157 -13.735210 30.248801 -9.472610 -6.110568 11.117607 5.687775 -7.299430 -16.693250 -29.221121 18.234510 69.205544 -7.438630 -1.552980 -16.077090 -11.909269 -19.246140 8.982495 -54.221416 -3.796025 -4.929151 2.080467 -11.828635 -1.619043 -3.298332 2.614313 0.840850 -0.357170 0.520600 0.053960 1.512206 23.440785 9.743894 69.078080 15.425280 -21.718600 -7.622718 54.981075 -10.789770 2.043903 -1.040223 0.008120 0.401840 0.042440 -0.079000 
-1.038590 16.333990 -2.378350 1.655011 -4.905506 -12.340221 -15.125294 11.534564 4.521899 31.877310 -0.888162 -22.543127 -18.736887 22.654367 46.813340 0.919072 11.733302 0.177289 0.482650 0.476080 0.350510 18.727686 -9.554890 2.507035 -32.211870 3.511690 -29.207575 4.191010 -16.164141 56.563026 -1.495124 -9.175429 0.954373 0.089620 -0.138220 0.172040 -4.405082 -1.583688 -8.486138 36.552496 -13.865955 29.020533 -10.032232 -6.686807 12.005421 5.378789 -7.084747 -16.584057 -27.134013 17.082265 68.353041 -8.613230 -0.307620 -14.427080 -9.301553 -18.726445 9.456071 -53.573360 -3.372169 -3.266870 4.444963 -4.656132 -0.860831 -3.416452 2.626163 0.764650 -0.305270 0.521250 0.083340 -0.510262 22.467422 9.484901 72.515009 17.412547 -20.432148 -5.501827 54.156334 -10.085138 2.119300 -1.105755 0.051240 0.394650 0.031880 -0.027350 
-0.966940 16.425970 -2.356530 1.591116 -5.197145 -12.485089 -15.048668 11.507311 4.551162 32.229019 -0.791452 -20.520580 -21.358908 22.755943 43.543784 0.991502 11.565234 0.305065 0.432660 0.419380 0.317160 18.765163 -9.883435 2.260000 -31.344348 2.924006 -27.645469 2.919021 -14.636851 53.872843 -1.344260 -8.603459 1.161055 0.051160 -0.085760 0.163080 -4.562375 -1.155624 -8.358069 38.841185 -13.880688 27.107171 -10.752611 -6.849458 12.996602 5.054529 -6.786185 -16.770651 -25.097112 15.231332 67.534619 -8.946940 0.294430 -11.939740 -6.949156 -18.634363 10.030707 -51.783083 -2.963439 -2.617292 8.224956 -0.260348 -0.339008 -3.487160 2.637237 0.722150 -0.265490 0.495690 0.126320 -2.249274 21.958777 9.681193 74.717777 17.738297 -19.991617 -3.335603 54.215781 -9.442773 2.161340 -1.182267 0.033360 0.399000 0.008330 -0.007040 
-0.885300 16.526930 -2.346630 1.287478 -5.894857 -12.438099 -14.962973 11.492903 4.564044 32.377769 -0.438593 -18.821704 -23.287623 22.665011 40.592406 1.076973 11.364027 0.448940 0.341490 0.317780 0.249280 18.800864 -10.227480 2.057405 -30.194911 2.693910 -26.101205 2.030533 -13.086749 50.499869 -1.141954 -7.958730 1.411506 -0.012330 -0.026610 0.134680 -4.728621 -0.648091 -8.240817 41.425750 -13.679586 25.779219 -11.213935 -6.549968 13.270489 4.332266 -6.984155 -16.785426 -23.534882 13.184346 65.234993 -9.862460 0.911810 -8.562740 -3.702952 -16.502649 10.326015 -49.298595 -1.068278 -3.453348 9.571855 -2.664099 -0.525879 -3.507709 2.638008 0.651170 -0.215250 0.430780 0.155510 -4.092883 20.188293 9.481897 76.615135 18.335647 -18.911415 -4.382665 53.160157 -9.693248 2.209285 -1.238736 0.007350 0.378350 -0.003810 0.015250 
-0.810180 16.640430 -2.336900 1.288506 -6.312445 -12.980070 -14.874745 11.617290 4.495364 31.895333 -0.259043 -16.779305 -24.185860 22.130294 38.127515 1.124633 11.079612 0.573426 0.250990 0.218810 0.168660 18.807986 -10.618403 1.852439 -29.409807 2.210787 -23.794497 1.253864 -11.535318 46.545670 -0.928270 -7.300307 1.646726 -0.081020 0.013090 0.137320 -4.842857 -0.301357 -8.121591 42.509461 -12.635789 24.930593 -10.072164 -5.943622 14.233937 3.093154 -6.349003 -17.206986 -20.713427 10.580521 64.498546 -9.985150 1.393520 -4.190880 -1.549205 -16.353176 11.421319 -43.604912 1.515820 -3.799562 7.306180 -5.671250 -0.664660 -3.515228 2.690044 0.567340 -0.154530 0.355310 0.146810 -3.769807 19.618864 9.397023 75.390001 17.221520 -19.385778 -7.590072 52.270450 -10.771247 2.208763 -1.265665 0.014790 0.294890 0.013580 0.030110 
-0.726520 16.739170 -2.323320 0.842172 -5.955389 -13.470149 -14.784854 11.702596 4.413207 31.492340 -0.159908 -15.203745 -24.367228 21.393591 36.101514 1.123656 10.821067 0.718115 0.139220 0.084950 0.115890 18.823920 -10.994357 1.673018 -28.890876 1.483195 -20.990361 1.110549 -10.466607 42.344670 -0.735087 -6.735875 1.860087 -0.135480 0.079420 0.111850 -4.972825 0.079827 -8.028462 43.441620 -10.983998 23.663881 -8.084219 -5.182417 15.243421 1.561491 -4.868725 -17.044955 -15.899062 6.736607 63.296700 -10.439630 2.108210 0.037910 0.948432 -15.875457 11.996081 -34.614047 2.770112 -3.028908 -1.007331 -8.038015 -0.438656 -3.524324 2.653648 0.495990 -0.077620 0.269390 0.141020 -3.294709 17.823293 8.837945 72.934460 15.544415 -19.031438 -9.276302 49.959891 -10.562277 2.215241 -1.272409 -0.040350 0.265910 0.023260 0.024830 
